Coordinates
version=1
nRows=14
nColumns=36
inDegrees=yes

Units are S.I. units (second, meters, Newtons, ...)
If the header above contains a line with 'inDegrees', this indicates whether rotational values are in degrees (yes) or radians (no).

endheader
time	pelvis_tilt	pelvis_list	pelvis_rotation	pelvis_tx	pelvis_ty	pelvis_tz	hip_flexion_r	hip_adduction_r	hip_rotation_r	knee_angle_r	knee_angle_r_beta	ankle_angle_r	subtalar_angle_r	mtp_angle_r	hip_flexion_l	hip_adduction_l	hip_rotation_l	knee_angle_l	knee_angle_l_beta	ankle_angle_l	subtalar_angle_l	mtp_angle_l	lumbar_extension	lumbar_bending	lumbar_rotation	arm_flex_r	arm_add_r	arm_rot_r	elbow_flex_r	pro_sup_r	arm_flex_l	arm_add_l	arm_rot_l	elbow_flex_l	pro_sup_l
      0.00000000	     -4.36588576	      8.29831936	    184.87870521	      0.67292713	      1.07046050	      0.86865365	     13.01457896	     -0.32269894	     -1.18828440	     44.71353848	      0.78039847	     -6.62053677	    -32.29757341	     -7.50197996	     17.55462009	    -14.57876910	      8.82305285	     61.71806456	      1.07718343	     -2.15568707	    -23.31642579	     -7.50197996	    -23.43582136	     11.54488096	      2.19899395	     16.32847097	    -10.56567246	     -0.93443156	     23.03828302	     86.24441934	     16.42752831	     -4.04787727	      6.79981245	     24.08500694	     79.29340103
      0.01666670	     -4.49523641	      7.50748647	    182.59622101	      0.66803619	      1.06241308	      0.86656843	     14.42193647	     -0.89462517	      0.78780831	     47.68883697	      0.83232722	     -3.76027040	    -32.82745997	     -7.50118973	     16.58898460	    -13.61136298	      7.26628207	     61.54625674	      1.07418482	      3.19270157	    -23.52762220	     -7.50118973	    -21.89931070	     10.02867778	      3.99452849	     16.81576643	    -10.69811439	     -1.83424138	     23.93124142	     92.11070273	     15.53556617	     -4.16777538	      4.55105579	     22.42992434	     83.19938775
      0.03333330	     -2.33447525	      6.12970316	    180.28689966	      0.66372928	      1.05213476	      0.86226071	     18.28235290	     -0.78994241	      4.78839646	     50.98356223	      0.88983103	     -2.36431668	    -33.27789893	     -7.50098893	     18.79281781	    -11.85097364	      6.45618688	     62.64126844	      1.09329638	      3.17862507	    -23.59584289	     -7.50098893	    -18.56275467	      7.65578883	      6.00780878	     16.61994834	    -11.21195702	     -1.83981742	     23.75740425	     91.30270876	     14.81812886	     -4.98773383	      4.70131478	     21.03720099	     82.94807661
      0.05000000	     -0.60743234	      4.76172016	    179.28532408	      0.66178288	      1.04625089	      0.86012946	     20.88425639	     -0.77082231	      6.86839700	     52.50872879	      0.91645020	     -1.12540261	    -33.52685131	     -7.50094786	     21.06555519	     -9.91158128	      6.05346935	     63.26912140	      1.10425448	      3.92783978	    -23.44680484	     -7.50094786	    -15.90891969	      5.95262747	      6.71271004	     16.44722737	    -11.49791894	     -2.65913149	     22.89534271	     91.62992518	     14.51521372	     -5.70387333	      4.22232992	     20.23740894	     83.53919610
      0.06666670	      0.43405748	      4.11541147	    179.15861653	      0.66229683	      1.05058945	      0.86072072	     22.23144717	     -0.24826657	      7.68802376	     52.26195193	      0.91214313	     -1.41577481	    -33.51093207	     -7.50092143	     22.54293848	     -8.41115497	      6.13506254	     62.29176187	      1.08719634	      4.60187633	    -22.64157582	     -7.50092143	    -14.61659509	      5.34840648	      6.77394278	     16.38629224	    -11.99483163	     -3.73520073	     21.99708057	     91.67444929	     14.56021984	     -6.25119572	      3.83988110	     19.74620807	     84.04067970
      0.08333330	      0.88527106	      3.72594959	    179.75403793	      0.66324364	      1.06371719	      0.86270814	     21.75675008	      0.04183692	      7.05399602	     49.17550758	      0.85827452	     -5.17219102	    -33.12795684	     -7.50089810	     23.04503157	     -6.92149376	      6.26974217	     59.14926299	      1.03234939	      3.81091995	    -21.50309926	     -7.50089810	    -14.31117847	      5.07625398	      6.58272552	     16.34688724	    -12.61461587	     -4.91931182	     21.24810021	     91.51786484	     14.74333989	     -6.53306756	      3.50017534	     19.26900221	     84.43580025
      0.10000000	      0.43321680	      3.62541778	    180.27719845	      0.66417740	      1.07603608	      0.86466191	     19.90618366	      0.57619047	      6.19467151	     44.84695523	      0.78272703	     -9.30238900	    -32.65878947	     -7.50064085	     22.13432879	     -5.96136057	      5.74604451	     54.81619027	      0.95672300	      2.68291383	    -20.11627203	     -7.50064085	    -15.46304253	      5.13266089	      6.81159188	     16.13351572	    -12.95573354	    -11.00354268	     21.08238426	     94.43156847	     15.17598921	     -6.47437299	      0.79404059	     18.35862653	     92.10836310
      0.11666670	      0.14351223	      3.95184200	    180.74492977	      0.66498536	      1.08084058	      0.86650959	     18.34538094	      1.60463842	      5.24864089	     40.66498049	      0.70973780	    -11.45242764	    -31.89685804	     -7.50055601	     21.33244358	     -5.65925425	      4.80215993	     50.70625732	      0.88499114	      1.91523689	    -18.55700538	     -7.50055601	    -16.55685430	      5.73339949	      6.58984710	     16.16751654	    -13.76917920	    -12.24302234	     20.60625218	     94.07127657	     15.22068802	     -6.77664086	      0.93118742	     17.67427090	     92.69739813
      0.13333330	      0.70402503	      3.96553276	    180.98243401	      0.66544164	      1.07775405	      0.86763215	     18.03846858	      2.40808242	      4.53216303	     37.28214978	      0.65069627	    -11.78688015	    -30.80386394	     -7.50055875	     21.63202417	     -5.13877300	      3.40866254	     47.53515327	      0.82964494	      1.23705444	    -17.70635892	     -7.50055875	    -16.50492699	      5.87022708	      6.19326759	     15.83826517	    -14.52890787	    -12.48518251	     20.06173091	     94.23676811	     15.05986056	     -7.28003173	      0.82974792	     17.14336261	     92.95220468
      0.15000000	      1.01659035	      4.13144922	    181.20268493	      0.66542783	      1.07338854	      0.86831777	     17.70425028	      3.41106355	      3.82125570	     34.40965665	      0.60056180	    -11.48876526	    -29.50123923	     -7.50055921	     21.98883519	     -4.78365273	      1.93245045	     45.19428765	      0.78878912	      0.88391200	    -16.78486290	     -7.50055921	    -16.59990908	      6.19722911	      5.67142963	     15.48020896	    -15.26967752	    -12.77046093	     19.66514674	     94.28437616	     14.95840432	     -7.92969697	      0.77304595	     16.72035569	     93.16696894
      0.16666670	      0.79559106	      4.59234519	    181.72693595	      0.66506219	      1.07141816	      0.86934315	     16.95062708	      4.52762250	      2.53024568	     32.13532147	      0.56086717	     -8.83846946	    -25.44920841	     -7.50048861	     21.88049446	     -4.56099357	      0.79996648	     43.13320488	      0.75281644	      1.46223870	    -14.69032340	     -7.50048861	    -17.09509603	      6.98821941	      4.94071245	     15.29114491	    -16.05734860	    -13.51822492	     19.03037475	     92.89302495	     15.10969218	     -8.60441248	      1.57070208	     15.87089453	     94.07504605
      0.18333330	      1.45403686	      4.90080168	    181.92681878	      0.66416358	      1.07180204	      0.87014457	     17.15914955	      5.61919836	      1.99389962	     30.43859875	      0.53125377	     -7.45932605	    -22.56482575	     -7.50047194	     21.99485465	     -4.04436230	     -0.24833240	     40.24508260	      0.70240920	      1.69899879	    -12.23965457	     -7.50047194	    -16.32257093	      7.51827734	      4.21147402	     14.75601687	    -16.80828440	    -13.66356420	     18.35192482	     92.60442664	     14.68592841	     -9.23857490	      1.71809281	     15.51139098	     94.26388592
      0.20000000	      2.19596042	      5.14939215	    182.20399655	      0.66303576	      1.07573202	      0.87128247	     17.25523911	      6.53820988	      1.41813968	     28.91518111	      0.50466511	     -5.63953406	    -19.08267784	     -7.50045530	     21.76797701	     -3.30305871	     -0.70428997	     36.93577752	      0.64465093	      1.08448137	    -10.15101002	     -7.50045530	    -15.31033641	      8.00378335	      3.47203906	     14.27195671	    -17.57418417	    -13.74896615	     17.26933673	     92.31427531	     14.20588460	     -9.76375681	      2.22747288	     15.20550998	     94.73153772
      0.21666670	      2.74677660	      5.34949635	    182.50405873	      0.66177184	      1.08005882	      0.87219609	     16.81339710	      7.33365742	      0.96895351	     27.17188915	      0.47423893	     -4.16832576	    -15.85291552	     -7.50043807	     21.01378883	     -2.56278575	     -0.84902713	     33.48055391	      0.58434590	      0.24042022	     -8.83409732	     -7.50043807	    -14.35750042	      8.38231468	      2.80612354	     13.86751836	    -18.29343215	    -13.82555989	     16.21222027	     91.92211029	     13.70854341	    -10.21913719	      2.93988324	     14.87225112	     95.27523810
